<?xml version="1.0" encoding="UTF-8"?>
<svg id="Layer_1" xmlns="http://www.w3.org/2000/svg" version="1.1" viewBox="0 0 573 60.17">
  <!-- Generator: Adobe Illustrator 29.2.1, SVG Export Plug-In . SVG Version: 2.1.0 Build 116)  -->
  <defs>
    <style>
      .st0 {
        fill: #003057;
      }

      .st1 {
        fill: #aa985d;
      }
    </style>
  </defs>
  <g>
    <g>
      <path class="st0" d="M488.61,40.38c0,1.58,1.03,2.3,2.36,2.3,1.86,0,2.28-1.22,2.28-2.39v-3.2c0-1-.92-.6-.92-.96,0-.05.07-.1.1-.1.38,0,.77.03,1.15.03.19,0,.37-.03.55-.03.05,0,.13.05.13.11,0,.27-.58.06-.58.96v3.06c0,.49.12,2.92-2.75,2.92-2.59,0-3.09-1.45-3.09-2.97v-3.33c0-.58-.8-.35-.8-.66,0-.07.17-.1.22-.1.26,0,.5.03.77.03.32,0,.63-.03.94-.03.05,0,.32-.02.32.1,0,.27-.66,0-.66.71v3.54Z"/>
      <path class="st0" d="M498,37.98c0-2.06-1.2-1.48-1.2-1.85,0-.06.1-.1.15-.1.16,0,.31.03.46.03.15,0,.31-.03.45-.03.11,0,.2.16.26.23l4.72,5.25c.06.07.1.11.12.11s.03-.03.03-.11v-4.13c0-1.3-1.1-.92-1.1-1.25,0-.07.05-.1.11-.1.3,0,.58.03.9.03.33,0,.76-.03,1-.03.06,0,.1.03.1.09,0,.26-.58.08-.58.8v5.72c0,.29-.01.43-.09.43-.07,0-.17-.05-.37-.28l-4.25-4.79s-.14-.19-.21-.19c-.04,0-.07.03-.07.23v4.04c0,.89.87.54.87.81,0,.05-.01.13-.11.13-.24,0-.51-.03-1-.03-.35,0-.86.03-.93.03-.12,0-.13-.06-.13-.11,0-.35.87.09.87-1.29v-3.64Z"/>
      <path class="st0" d="M508,36.88c0-.72-.8-.52-.8-.74,0-.09.02-.11.1-.11.37,0,.72.04,1.09.04.3,0,.61-.04.92-.04.16,0,.19.02.19.1,0,.24-.71,0-.71.75v5.3c0,.67.88.45.88.74,0,.07-.03.1-.19.1-.23,0-.65-.03-1.08-.03-.6,0-.81.03-.95.03-.18,0-.21-.05-.21-.15,0-.29.77.04.77-.94v-5.05Z"/>
      <path class="st0" d="M512.75,36.8c-.25-.59-.76-.41-.76-.63,0-.09.05-.14.14-.14.31,0,.61.03.91.03.27,0,.64-.03.78-.03.06,0,.14.04.14.1,0,.14-.41.15-.41.51,0,.14.05.3.09.39l1.73,4.07c.21.52.29.75.4.75.1,0,.13-.16.18-.28l1.72-4.24c.06-.15.18-.46.14-.67,0-.46-.63-.27-.63-.5,0-.1.05-.13.15-.13.22,0,.43.03.65.03.48,0,.62-.03.76-.03.11,0,.17.04.17.13,0,.22-.28-.03-.55.63l-2.46,5.82c-.11.25-.18.57-.33.57-.16,0-.28-.41-.36-.62l-2.44-5.77Z"/>
      <path class="st0" d="M530.61,36.72c0-.39.21-.37.56-.37.97,0,1.89.41,1.89,1.61s-.95,1.4-1.37,1.4c-.47,0-1.08.05-1.08-.14v-2.51ZM532.56,39.45c.69-.28,1.25-.94,1.25-1.71,0-1.9-2.19-1.7-2.34-1.7-.52,0-1.08.03-1.65.03-.5,0-.45-.03-.63-.03-.12,0-.2.06-.2.12,0,.33.85-.07.85.88v5.02c0,.75-.72.61-.72.86,0,.06.04.11.1.11.38,0,.75-.03,1.13-.03.82,0,1.05.03,1.14.03.08,0,.17.02.17-.08,0-.34-1.03-.03-1.03-.88v-2.08c0-.1-.06-.28.26-.28,1.11,0,.96-.03,1.32.52l1.1,1.73c.38.56.76,1.07,1.48,1.07.09,0,.64,0,.64-.12,0-.24-.48.13-1.19-.96l-1.65-2.5Z"/>
      <path class="st0" d="M537.31,41.27c-.04-.2.01-.31.11-.31.14,0,.14.12.19.33.12.45.71,1.48,2.07,1.48.95,0,1.87-.52,1.87-1.56,0-1.9-4.03-.84-4.03-3.41,0-1.25,1.06-1.86,2.2-1.86,1.2,0,1.53.36,1.67.36.09,0,.11-.11.21-.11.06,0,.11.03.12.14l.15,1.34c0,.08,0,.15-.11.15-.11,0-.18-.21-.21-.3-.3-.85-1.02-1.28-1.9-1.28-.79,0-1.62.38-1.62,1.28,0,1.85,4.02.77,4.02,3.49,0,.83-.58,2.07-2.83,2.07-.74,0-1.63-.37-1.67-.55l-.25-1.27Z"/>
      <path class="st0" d="M545.84,36.88c-.01-.72-.8-.52-.8-.74,0-.09.02-.11.1-.11.37,0,.72.04,1.08.04.31,0,.61-.04.92-.04.16,0,.19.02.19.1,0,.24-.71,0-.71.75v5.3c0,.67.88.45.88.74,0,.07-.03.1-.2.1-.23,0-.65-.03-1.08-.03-.6,0-.81.03-.94.03-.18,0-.21-.05-.21-.15,0-.29.77.04.77-.94v-5.05Z"/>
      <path class="st0" d="M552.65,37.03c0-.07.04-.45-.1-.45h-1.61c-.61,0-.63.15-.81.69-.03.1-.04.23-.17.23-.06,0-.1-.07-.1-.12l.11-.96c.01-.12,0-.38.18-.38.77,0,1.53.03,2.81.03,1.79,0,2.69-.03,2.89-.03.23,0,.28.06.29.28l.05.79c0,.1.02.22-.11.22-.37,0,.17-.75-.84-.75h-1.41c-.44,0-.39-.04-.39.48v5.03c0,.83.8.5.8.81,0,.03.01.12-.09.12-.24,0-.51-.03-.8-.03-1.11,0-1.29.03-1.35.03-.09,0-.12-.03-.12-.13,0-.24.78-.14.78-.73v-5.13Z"/>
      <path class="st0" d="M558.77,36.66c-.26-.42-.74-.31-.74-.47,0-.07.06-.15.13-.15.27,0,.46.03,1.13.03.33,0,.59-.03.69-.03.07,0,.19,0,.19.1,0,.17-.46.18-.46.47,0,.16.12.32.17.4l1.2,1.91c.08.12.14.18.2.18.05,0,.11-.07.19-.2l1.02-1.65c.07-.11.21-.28.21-.54,0-.48-.74-.28-.74-.51,0-.13.1-.15.21-.15.23,0,.48.03.72.03.29,0,.57-.03.86-.03.06,0,.11.07.11.12,0,.11-.17.15-.24.19-.27.16-.4.43-.55.68l-1.38,2.15c-.16.25-.24.3-.24.44v2.42c0,.86.81.58.81.89,0,.09-.09.1-.23.1-.15,0-.72-.03-1.09-.03-.44,0-.8.03-.89.03s-.15,0-.15-.12c0-.27.76-.02.76-.72v-2.39c0-.19-.15-.38-.23-.5l-1.65-2.64Z"/>
      <path class="st0" d="M522.74,38.86c0,.34-.02.34.37.34h1.06c1.02,0,.76-.79,1-.79.08,0,.11.11.11.19,0,.35-.02.68-.02,1,0,.26.02.51.02.78,0,.09-.04.13-.11.13-.3,0,.03-.87-.8-.87h-1.46c-.21,0-.18.17-.18.32v1.81c0,.58-.08.82.75.82,2.27,0,2.61-1.02,2.74-1.02.07,0,.08.1.08.12,0,.35-.26.7-.5.95-.31.35-.53.33-.96.33-.75,0-1.5-.05-2.25-.03-.39,0-.81.03-1.2.03-.09,0-.15-.02-.15-.1.02-.12.12-.1.43-.25.26-.12.28-.4.28-.86v-4.51c0-.45,0-.92-.54-1-.08-.02-.3-.04-.3-.15,0-.08.06-.12.35-.12,1.86,0,2.37.03,2.79.03.2,0,1.1-.03,1.4-.03.08,0,.1.1.1.22,0,1.1-.14,1.18-.2,1.18-.24,0-.08-.47-.24-.7-.25-.34-1.28-.28-1.67-.28-.95,0-.93-.04-.93.62v1.83Z"/>
      <path class="st0" d="M528.35,15.13c4.64,0,7.57,4.22,7.57,8.55s-2.79,7.19-6.27,7.19c-4.72,0-7.6-4.26-7.6-8.67,0-3.76,2.29-7.07,6.29-7.07M528.66,31.59c5.31,0,8.99-3.46,8.99-8.81,0-4.93-3.73-8.43-8.59-8.43s-8.73,3.6-8.73,8.55,3.16,8.69,8.33,8.69"/>
      <path class="st0" d="M542.46,16.2c0-.9.48-.86,1.32-.86,2.27,0,4.42.95,4.42,3.77s-2.22,3.28-3.22,3.28c-1.09,0-2.52.11-2.52-.32v-5.87ZM547.02,22.58c1.63-.64,2.92-2.19,2.92-3.99,0-4.47-5.12-4-5.49-4-1.21,0-2.52.1-3.85.1-1.18,0-1.07-.1-1.48-.1-.28,0-.46.14-.46.28,0,.79,1.99-.16,1.99,2.06v11.76c0,1.76-1.69,1.43-1.69,2.02,0,.14.1.25.23.25.88,0,1.75-.09,2.63-.09,1.92,0,2.45.09,2.66.09.18,0,.39.05.39-.19,0-.79-2.41-.07-2.41-2.06v-4.89c0-.23-.14-.65.6-.65,2.6,0,2.25-.07,3.08,1.23l2.57,4.05c.88,1.32,1.78,2.5,3.47,2.5.21,0,2.04,0,2.04-.28,0-.56-1.67.3-3.33-2.25l-3.87-5.85Z"/>
      <path class="st0" d="M553.77,16.03c-.6-.99-1.73-.72-1.73-1.11,0-.16.14-.35.3-.35.62,0,1.06.1,2.63.1.76,0,1.39-.1,1.62-.1.16,0,.44.03.44.23,0,.39-1.08.41-1.08,1.09,0,.37.28.74.42.95l2.79,4.46c.19.28.32.42.46.42.11,0,.25-.16.43-.46l2.38-3.86c.16-.25.49-.65.49-1.27,0-1.13-1.73-.65-1.73-1.2,0-.3.23-.35.48-.35.55,0,1.13.1,1.69.1.67,0,1.34-.1,2.01-.1.14,0,.25.16.25.28,0,.26-.39.35-.55.44-.62.37-.92,1.02-1.29,1.6l-3.23,5.04c-.37.58-.56.69-.56,1.04v5.67c0,2.01,1.9,1.36,1.9,2.08,0,.21-.21.23-.53.23-.35,0-1.69-.1-2.53-.1-1.04,0-1.87.1-2.07.1s-.35-.02-.35-.28c0-.65,1.78-.05,1.78-1.69v-5.6c0-.44-.35-.9-.53-1.18l-3.86-6.18Z"/>
      <path class="st0" d="M517.7,28.82c.11,1.94,1.82,1.08,1.82,1.89,0,.23-.3.23-.55.23-.44,0-1.25-.1-2.17-.1-.71,0-1.45.1-2,.1-.2,0-.25-.12-.25-.21,0-.69,1.46-.19,1.43-1.89l-.63-8.96c0-.58-.12-.9-.25-.9-.16,0-.37.21-.6.69l-4.78,9.74c-.12.21-.49,1.15-.72,1.15s-.39-.51-.46-.67l-4.92-10.3c-.07-.18-.19-.25-.28-.25-.07,0-.14.12-.16.35l-.68,8.11c-.12,3.07,2.07,2.05,2.07,2.89,0,.23-.25.25-.58.25-.3,0-1.34-.1-2.02-.1-1.2,0-1.59.1-2.04.1-.16,0-.23-.12-.23-.28,0-.79,1.47.16,1.64-2.24.28-3.77.56-6.22.56-8.68,0-5.44-1.79-4.14-1.79-4.93,0-.21.18-.25.39-.25.41,0,.83.1,1.27.1.42,0,.83-.1,1.23-.1.33,0,.37.39.49.65l5.52,11.75c.26.48.35.69.51.69.11,0,.34-.48.72-1.25l5.51-11.06c.13-.25.32-.81.59-.79.23,0,.97.1,1.08.1.53,0,.74-.1,1.11-.1.14,0,.23.14.23.28,0,.74-1.85-.25-1.76,2.5l.7,11.47Z"/>
      <path class="st0" d="M489.61,21.32c0,.79-.05.79.87.79h2.49c2.39,0,1.78-1.85,2.32-1.85.18,0,.25.25.25.44,0,.81-.03,1.6-.03,2.33,0,.6.03,1.2.03,1.83,0,.21-.09.3-.25.3-.71,0,.07-2.04-1.86-2.04h-3.41c-.49,0-.41.4-.41.74v4.26c0,1.36-.18,1.92,1.75,1.92,5.32,0,6.1-2.38,6.4-2.38.16,0,.18.23.18.28,0,.83-.6,1.64-1.15,2.25-.74.84-1.25.79-2.25.79-1.75,0-3.5-.14-5.26-.1-.92.02-1.89.1-2.81.1-.21,0-.35-.05-.35-.23.04-.28.28-.24,1.02-.61.6-.28.65-.92.65-2.01v-10.54c0-1.04,0-2.16-1.25-2.34-.18-.05-.69-.09-.69-.36,0-.19.14-.28.81-.28,4.35,0,5.55.1,6.52.1.46,0,2.58-.1,3.29-.1.18,0,.23.23.23.51,0,2.57-.32,2.75-.46,2.75-.56,0-.19-1.11-.56-1.64-.59-.79-2.99-.65-3.91-.65-2.21,0-2.17-.09-2.17,1.46v4.3Z"/>
      <path class="st0" d="M455.99,44.49c-15.17-7.02-13.36-22.69-13.35-30.02l26.85.03c0,7.33,1.68,23.01-13.51,30M442.64,13.26l-1.16,1.21c-.01.88-.03,1.98-.04,2.52-.11,8.61.47,22,14.48,28.48,7.41-3.43,13.02-9.33,14.49-18.49.86-5.3.34-10.33.35-13.72h-28.13Z"/>
      <path class="st0" d="M450.25,32.5c-1.08,1.15-2.14,2.29-2.5,2.67-.08.09-.09.18-.04.23.07.08.17.18.21.19.07.01.11.04.23-.08.05-.05,1.23-1.19,2.63-2.54,0,0-.14-.07-.26-.18-.12-.11-.27-.3-.27-.3"/>
      <path class="st0" d="M450.97,32.2c.27.27.72.52.72.52l-.25.24c-.09.1-.44-.06-.78-.36-.33-.3-.53-.63-.44-.73l.27-.25s.19.31.46.57"/>
      <path class="st0" d="M463.24,35.16c.22-.22.23-.43.23-.43l.25.12c.07.07.01.36-.22.58-.22.22-.53.29-.6.22l-.13-.26s.24,0,.47-.23"/>
      <path class="st0" d="M462.87,34.76c.14-.13.19-.31.19-.31l.16.11c.05.06,0,.23-.16.39-.16.16-.39.22-.44.16l-.09-.17s.2-.05.34-.18"/>
      <path class="st0" d="M463.62,22.5l-.28.25c-.39.15-1.28-.53-1.98-1.14-.47-.41-1.4-1.44-1.14-1.86l.12-.12c-.08-.05-.16-.09-.21-.12-.08-.04-.18-.07-.3-.06-.11.01-.2.06-.21.15-.02.19.09.43.24.73.15.29.73,1.14,1.9,2.07.54.43,1.15.69,1.59.85.08.03.36.09.48-.03.12-.12-.01-.34-.11-.54-.02-.05-.06-.12-.1-.18"/>
      <path class="st0" d="M451.44,18.13c0,.09,0,.19,0,.29,0,.28.26,2.64,1.62,4.34,1.17,1.47,4.72,5.69,5.29,6.36.53.63,4.01,4.7,4.45,5.21.02.02.04.05.04.05,0,0-.05.11-.15.2-.11.09-.23.1-.23.1-.01-.01-.09-.09-.11-.11-.13-.15-6.14-6.16-6.72-6.72-.59-.56-3.68-3.56-4.96-4.38-1.11-.7-1.61-1.1-2.82-1.2,0,0-.86-.03-.92-.07-.01,0,0-.05.02-.06.53-.22,1.7-.9,2.62-1.78,1.29-1.23,1.71-2.09,1.77-2.22.02-.03.09-.04.09-.01M452.29,23.22c-1.25-1.24-1.72-1.53-2.29-1.77-.29-.13-.58-.22-.67-.19-.25.09-.61.26-.84.46-.16.15-.15.22-.06.26.09.05.72.19,1.3.5,1.01.54,2.91,1.86,7.05,6.14,2.1,2.18,5.42,5.54,5.42,5.54l.09-.07s-4.82-5.4-8.58-9.4c-.53-.57-1-1.05-1.42-1.47"/>
      <path class="st0" d="M448.58,20.65c-.55.46-1.24.88-1.84,1.13-.38.16-.92-.02-.53-.76.12-.22.28-.5.51-.81.72-.96,2.02-2.14,3.27-2.82.38-.21.73-.34.89-.33.31.02.33.28.27.53-.13.54-1.03,1.76-2.57,3.06M448.96,19.95c.14-.12.64-.63,1.06-1.12.44-.52.68-.99.68-.99,0,0,.07-.15.06-.25-.01-.08-.09-.11-.12-.14-.05-.04-1.13.45-1.61.89-.06.05-.16.27-.21.43-.04.14.32.52.08,1.1-.03.08.04.09.06.07"/>
      <path class="st0" d="M455.54,28.19c-.25.24-4.16,3.98-4.16,3.98.06.06.22.18.22.18,0,0,3.59-3.44,3.85-3.69.07-.07.23-.21.29-.26l-.21-.2Z"/>
      <path class="st0" d="M462.9,23.57c.05,0,.11,0,.16-.01.06,0,.14-.02.15-.03.03-.03.05-.06,0-.06-.19,0-.52-.1-.89-.28-.23.06-.61.16-1.05.36-.56.25-1.8.99-4.32,3.31l.2.23c.88-.79,2.05-1.82,2.68-2.24,1.13-.74,1.94-1.07,2.49-1.2.16-.04.41-.07.59-.08"/>
      <path class="st0" d="M460.44,21.73c-.69-.72-.91-1.24-1.02-1.62,0-.02,0-.03-.01-.04,0,0-.03-.01-.04.02,0,.02,0,.03-.01.05-.06.74,0,1.06-.31,1.82-.26.63-.72,1.45-1.36,2.18-.37.43-.99,1.13-1.56,1.79l.4.48s.17-.18.31-.34c1.93-2.06,3.6-3.34,4.2-3.78-.22-.18-.42-.37-.6-.56"/>
      <path class="st0" d="M454.73,27.45c-.81.92-1.63,1.82-1.87,2.08-.2.23-1.98,2.14-1.98,2.14,0,0,.04.08.1.14.05.06.15.15.15.15,0,0,3.73-3.82,4.01-4.12l-.41-.38Z"/>
      <path class="st0" d="M461.12,19.21s0-.05,0-.08c-.19-.05-.34-.04-.42.04-.24.26.3,1.16,1.21,2.01.91.84,1.85,1.32,2.09,1.05.1-.11.07-.32-.06-.58-1.32.15-2.82-1.59-2.82-2.44"/>
      <path class="st0" d="M465.23,19.54c-.13.15-.35.49-.48.61.14-.13.22-.43.07-1.24-.11-.56-.18-.75-.25-.94-.04-.11-.11-.08-.18,0-.07.08-.24.37-.25.39-.02.07,0,0-.26-.81-.17-.52-.24-.88-.23-1.06,0-.1,0-.2.01-.27,0-.06-.03-.06-.2,0-.09.04-.79.52-1.07,1.25-.17.42-.18.77-.21.56-.05-.41-.04-.41-.08-.4-.23.08-1.04.44-1.04,1.53,0,.93,1.75,2.9,3.17,2.45,0,0,1.08-.21,1.1-1.18.02-.97-.09-.93-.09-.93M464.87,20.75c-.05.1-.25.35-.56.49-.34.15-.79.17-1.02.1-1.05-.32-1.68-1.39-1.68-1.39-.83-1.34.28-1.9.37-1.92,0,0-.12.44-.04.73.06.27.22.47.27.62.1.29-.04.5-.11.59-.04.05.06.02.08,0,.02-.01.03-.03.06-.05.15-.11.29-.29.25-.48-.1-.41-.39-.67-.04-1.52.21-.52.71-1.03.76-1.06.08-.05.13-.12.13-.07,0,.06.09.44.14.69.04.25.33.75.27,1.45-.06.7-1.21,1.47-1.37,1.52-.05.02-.13.06-.15.08-.04.04.02.05.05.05.06.01.55-.11.94-.38.33-.23.64-.57.75-.78.2-.38.3-.9.32-.94.03-.08.07-.08.08-.04,0,.04.09.35.12.51.02.09.07.33.07.6,0,.53-.15.77-.46,1-.18.14-.37.19-.58.21h-.07s-.06.03,0,.06c.02,0,.04.02.07.03.17.08.54.07.78-.08.11-.07.25-.17.45-.36.07-.07.17-.2.18-.16.01.06.03.3-.07.49"/>
    </g>
    <g>
      <g>
        <g>
          <path class="st0" d="M60.08,30.23h9.85c.12,0,.18.06.18.18v2.93c0,.12-.06.18-.18.18h-1.57c-.12,0-.18-.06-.18-.18v-1.1c0-.07-.04-.11-.11-.11h-1.87c-.07,0-.11.04-.11.11v8.53c0,.07.04.11.11.11h.95c.12,0,.18.06.18.18v1.43c0,.12-.06.18-.18.18h-4.28c-.12,0-.18-.06-.18-.18v-1.43c0-.12.06-.18.18-.18h.95c.07,0,.11-.04.11-.11v-8.53c0-.07-.04-.11-.11-.11h-1.87c-.07,0-.11.04-.11.11v1.1c0,.12-.06.18-.18.18h-1.57c-.12,0-.18-.06-.18-.18v-2.93c0-.12.06-.18.18-.18Z"/>
          <path class="st0" d="M73.16,33.66c.9,0,1.67.22,2.31.65.63.43,1.07,1.03,1.32,1.78.2.6.29,1.48.29,2.65,0,.12-.07.18-.2.18h-5.44c-.07,0-.11.04-.11.11,0,.22.04.45.13.68.3.89.96,1.34,1.98,1.34.87,0,1.56-.28,2.07-.84.1-.1.19-.11.27-.04l1.08.95c.09.07.09.16.02.26-.85,1-2.06,1.5-3.62,1.5-.93,0-1.71-.22-2.35-.65-.64-.43-1.08-1.03-1.33-1.8-.21-.65-.31-1.37-.31-2.16,0-.84.1-1.57.29-2.18.24-.77.69-1.37,1.33-1.79.64-.43,1.4-.64,2.28-.64ZM73.18,35.4c-.9,0-1.48.38-1.74,1.13-.07.22-.11.47-.11.75,0,.07.04.11.11.11h3.46c.07,0,.11-.04.11-.11,0-.28-.04-.53-.11-.75-.12-.35-.34-.63-.64-.83-.31-.2-.67-.3-1.08-.3Z"/>
          <path class="st0" d="M82.24,33.66c1.22,0,2.23.23,3.04.7.1.05.15.13.15.24v2.01c0,.12-.06.18-.18.18h-1.56c-.12,0-.18-.06-.18-.18v-.81s-.03-.09-.09-.13c-.24-.12-.62-.18-1.12-.18-.95,0-1.56.38-1.81,1.15-.12.37-.18.91-.18,1.63s.06,1.28.18,1.65c.26.76.86,1.13,1.81,1.13.52,0,.9-.05,1.12-.16.06-.02.09-.07.09-.13v-.82c0-.12.06-.18.18-.18h1.56c.12,0,.18.06.18.18v2.03c0,.11-.05.19-.15.24-.87.45-1.88.68-3.04.68-1.99,0-3.24-.79-3.75-2.38-.18-.55-.27-1.29-.27-2.23s.09-1.63.27-2.18c.26-.78.71-1.38,1.36-1.8.65-.42,1.45-.63,2.39-.63Z"/>
          <path class="st0" d="M86.75,30.23h2.76c.12,0,.18.06.18.18v4.26h.02c.48-.68,1.24-1.03,2.29-1.03.92,0,1.65.31,2.21.92.56.61.83,1.4.83,2.36v3.84c0,.07.04.11.11.11h.75c.12,0,.18.06.18.18v1.43c0,.12-.06.18-.18.18h-3.81c-.12,0-.18-.06-.18-.18v-1.43c0-.12.06-.18.18-.18h.79c.07,0,.11-.04.11-.11v-3.37c0-.59-.14-1.05-.42-1.4-.28-.35-.69-.52-1.23-.52s-.93.17-1.22.52c-.29.35-.43.81-.43,1.4v3.37c0,.07.04.11.11.11h.79c.12,0,.18.06.18.18v1.43c0,.12-.06.18-.18.18h-3.84c-.12,0-.18-.06-.18-.18v-1.43c0-.12.06-.18.18-.18h.79c.07,0,.11-.04.11-.11v-8.64c0-.07-.04-.11-.11-.11h-.79c-.12,0-.18-.06-.18-.18v-1.43c0-.12.06-.18.18-.18Z"/>
          <g>
            <path class="st0" d="M98.37,40.89h0c-.49,0-.89.4-.89.9s.4.9.89.9.89-.4.89-.9-.39-.9-.88-.9ZM98.37,42.55c-.4,0-.72-.34-.72-.76s.32-.76.72-.76h0c.4,0,.72.34.72.76s-.32.76-.72.76Z"/>
            <path class="st0" d="M98.53,41.82h0c.11-.04.2-.12.2-.25,0-.1-.03-.16-.09-.21-.06-.04-.16-.08-.31-.08-.12,0-.2.01-.28.02v1h.16v-.43h.11c.13,0,.19.05.22.18.02.13.04.22.07.26h.17s-.04-.09-.06-.25c-.02-.15-.08-.23-.17-.24ZM98.31,41.75h-.12v-.34s.06,0,.12,0c.18,0,.24.09.24.18,0,.12-.11.17-.24.17Z"/>
          </g>
        </g>
        <g>
          <path class="st0" d="M62.73,14.08c.76,0,1.48.11,2.17.34.69.23,1.24.52,1.66.87.09.07.13.16.13.26v2.2c0,.12-.06.18-.18.18h-1.65c-.12,0-.18-.06-.18-.18v-1.08c0-.06-.02-.11-.07-.15-.5-.33-1.14-.49-1.92-.49-1.34,0-2.2.56-2.58,1.67-.2.61-.29,1.56-.29,2.86,0,1.38.08,2.32.24,2.82.18.54.47.94.87,1.22.4.27.95.41,1.67.41.9,0,1.58-.15,2.03-.44.12-.07.18-.17.18-.29v-2.43c0-.07-.04-.11-.11-.11h-1.98c-.12,0-.18-.06-.18-.18v-1.46c0-.12.06-.18.18-.18h3.99c.12,0,.18.06.18.18v5.25c0,.18-.08.33-.24.44-1.09.78-2.45,1.17-4.1,1.17-2.45,0-4-.97-4.63-2.91-.21-.62-.31-1.78-.31-3.48,0-1.6.12-2.75.35-3.44.65-2.01,2.24-3.02,4.78-3.02Z"/>
          <path class="st0" d="M72.38,17.7c.9,0,1.67.22,2.31.65.63.43,1.07,1.03,1.32,1.78.2.6.29,1.48.29,2.65,0,.12-.07.18-.2.18h-5.44c-.07,0-.11.04-.11.11,0,.22.04.45.13.68.3.89.96,1.34,1.98,1.34.87,0,1.56-.28,2.07-.84.1-.1.19-.11.27-.04l1.08.95c.09.07.09.16.02.26-.85,1-2.06,1.5-3.62,1.5-.93,0-1.71-.22-2.35-.65-.64-.43-1.08-1.03-1.33-1.8-.21-.65-.31-1.37-.31-2.16,0-.84.1-1.57.29-2.18.24-.77.69-1.37,1.33-1.79.64-.43,1.4-.64,2.28-.64ZM72.4,19.44c-.9,0-1.48.38-1.74,1.13-.07.22-.11.47-.11.75,0,.07.04.11.11.11h3.46c.07,0,.11-.04.11-.11,0-.28-.04-.53-.11-.75-.12-.35-.34-.63-.64-.83-.31-.2-.67-.3-1.08-.3Z"/>
          <path class="st0" d="M81.63,17.7c.89,0,1.66.21,2.3.64.64.43,1.08,1.03,1.33,1.79.2.6.29,1.32.29,2.18s-.1,1.58-.29,2.18c-.24.77-.69,1.37-1.33,1.79-.64.43-1.41.64-2.3.64s-1.67-.21-2.32-.64c-.64-.43-1.08-1.02-1.33-1.79-.2-.6-.29-1.32-.29-2.18s.1-1.58.29-2.18c.24-.77.69-1.37,1.33-1.79.64-.43,1.41-.64,2.32-.64ZM81.63,19.53c-.87,0-1.42.38-1.67,1.15-.12.39-.18.93-.18,1.63s.06,1.25.18,1.63c.27.77.82,1.15,1.67,1.15s1.38-.38,1.65-1.15c.12-.38.18-.92.18-1.63s-.06-1.24-.18-1.63c-.24-.77-.79-1.15-1.65-1.15Z"/>
          <path class="st0" d="M92,17.78c.29,0,.58.03.86.09.12.02.18.09.18.18v1.59c0,.16-.07.22-.22.18-.52-.1-.88-.15-1.08-.15-1.32,0-1.98.76-1.98,2.27v2.87c0,.07.04.11.11.11h.86c.12,0,.18.06.18.18v1.43c0,.12-.06.18-.18.18h-3.92c-.12,0-.18-.06-.18-.18v-1.43c0-.12.06-.18.18-.18h.79c.07,0,.11-.04.11-.11v-5.01c0-.07-.04-.11-.11-.11h-.79c-.12,0-.18-.06-.18-.18v-1.43c0-.12.06-.18.18-.18h2.76c.12,0,.18.06.18.18v.92h.02c.5-.82,1.24-1.23,2.21-1.23Z"/>
          <path class="st0" d="M97.1,17.71c1.09,0,1.85.35,2.29,1.04h.02v-.66c0-.12.06-.18.18-.18h2.76c.12,0,.18.06.18.18v1.43c0,.12-.06.18-.18.18h-.79c-.07,0-.11.04-.11.11v6.37c0,1.28-.35,2.28-1.05,2.98-.7.71-1.72,1.06-3.07,1.06-.62,0-1.23-.12-1.82-.36-.59-.24-1.05-.56-1.38-.96-.07-.09-.07-.17.02-.26l1.08-1.08c.09-.1.18-.1.27,0,.57.55,1.21.82,1.92.82,1.32,0,1.98-.7,1.98-2.11v-.82h-.02c-.44.68-1.2,1.02-2.29,1.02-.74,0-1.37-.18-1.89-.55-.51-.37-.88-.9-1.12-1.59-.2-.6-.29-1.35-.29-2.25s.1-1.64.29-2.23c.46-1.44,1.46-2.16,3-2.16ZM97.63,19.55c-.79,0-1.31.37-1.56,1.12-.13.39-.2.87-.2,1.45s.07,1.08.2,1.45c.24.76.76,1.14,1.56,1.14s1.33-.38,1.57-1.14c.13-.37.2-.85.2-1.45s-.07-1.06-.2-1.45c-.24-.74-.77-1.12-1.57-1.12Z"/>
          <path class="st0" d="M103.71,17.9h2.76c.12,0,.18.06.18.18v6.74c0,.07.04.11.11.11h.79c.12,0,.18.06.18.18v1.43c0,.12-.06.18-.18.18h-3.84c-.12,0-.18-.06-.18-.18v-1.43c0-.12.06-.18.18-.18h.79c.07,0,.11-.04.11-.11v-5.01c0-.07-.04-.11-.11-.11h-.79c-.12,0-.18-.06-.18-.18v-1.43c0-.12.06-.18.18-.18ZM104.79,14.28h1.68c.12,0,.18.06.18.18v1.59c0,.12-.06.18-.18.18h-1.68c-.12,0-.18-.06-.18-.18v-1.59c0-.12.06-.18.18-.18Z"/>
          <path class="st0" d="M112.42,17.7c1.33,0,2.27.24,2.83.71.56.48.83,1.26.83,2.36v4.04c0,.07.04.11.11.11h.79c.12,0,.18.06.18.18v1.43c0,.12-.06.18-.18.18h-2.62c-.12,0-.18-.06-.18-.18v-.64h-.02c-.48.68-1.29,1.03-2.45,1.03-.85,0-1.56-.23-2.11-.7-.56-.46-.83-1.13-.83-2.01,0-.94.31-1.64.92-2.11.62-.47,1.48-.7,2.59-.7h1.76c.07,0,.11-.04.11-.11v-.35c0-.54-.13-.93-.39-1.17-.26-.24-.74-.37-1.42-.37-.32,0-.63.04-.95.11-.06.01-.09.05-.09.13v.79c0,.12-.06.18-.18.18h-1.59c-.12,0-.18-.06-.18-.18v-1.87c0-.11.05-.19.15-.24.87-.41,1.85-.62,2.95-.62ZM114.03,22.94h-1.43c-1.26,0-1.89.4-1.89,1.21,0,.74.5,1.12,1.5,1.12,1.28,0,1.92-.5,1.92-1.5v-.71c0-.07-.04-.11-.11-.11Z"/>
        </g>
      </g>
      <g>
        <g>
          <path class="st1" d="M46.22,41.03h0c-.45,0-.81.36-.81.82s.36.82.81.82.81-.36.81-.82-.36-.82-.81-.82ZM46.22,42.54c-.36,0-.66-.31-.66-.7s.3-.69.66-.69h0c.36,0,.66.31.66.7s-.29.7-.66.69Z"/>
          <path class="st1" d="M46.37,41.88h0c.1-.04.18-.11.18-.23,0-.09-.03-.15-.08-.19-.05-.04-.15-.07-.28-.07-.11,0-.18.01-.26.02v.92h.15v-.39h.1c.12,0,.18.04.2.16.02.12.04.2.06.23h.15s-.04-.08-.06-.23c-.02-.13-.07-.21-.15-.22ZM46.17,41.82h-.11v-.31s.06,0,.11,0c.16,0,.22.08.22.16,0,.11-.1.16-.22.16Z"/>
        </g>
        <g>
          <path class="st1" d="M20.25,14.26s-.04,0-.06,0c.03,0,.07,0,.1,0-.01,0-.03,0-.04,0Z"/>
          <path class="st1" d="M24.04,23.23v7.16h3.84l.4-2.15h1.73c-.63,3.28-3.89,5.54-8.02,5.54-.28,0-.57-.01-.85-.03-2.29-.18-4.39-.91-5.92-2.08-1.69-1.28-2.58-2.99-2.57-4.95,0-2.11.9-4.06,2.52-5.49,1.55-1.37,3.61-2.18,5.81-2.27.14,0,.28,0,.42,0,2.58,0,5.35,1.01,7.41,2.71.1.09.13.1.16.12.01,0,.03.02.15.12l.06.05h.08s4.33,0,4.33,0v-7.71h-4.47v2.21c-1.88-1.21-5.1-2.42-8.86-2.42h-.06c-4.09.01-8.07,1.69-10.92,4.59-2.33,2.37-3.59,5.26-3.55,8.15.04,3.11,1.54,6,4.21,8.15,2.56,2.06,6.03,3.23,9.52,3.23.43,0,.87-.02,1.3-.05,3.46-.28,6.52-1.07,8.69-2.23v.96s4.74,0,4.74,0v-8.58h1.64v9.95h-2.47v4.47h11.04v-4.47h-2.47v-9.95h5.59l.39,2.15h3.86v-7.16h-27.71ZM20.25,14.26s.03,0,.04,0c-.03,0-.07,0-.1,0,.02,0,.04,0,.06,0Z"/>
        </g>
      </g>
    </g>
  </g>
  <g>
    <g>
      <path class="st0" d="M144.74,6.92h2.93l1.68,11.2h.04l1.78-11.2h2.93l1.78,11.2h.04l1.68-11.2h2.93l-2.76,15.14h-3.41l-1.7-10.99h-.04l-1.7,10.99h-3.41l-2.76-15.14Z"/>
      <path class="st0" d="M160.73,14.15v-.28c0-2.63,1.8-3.52,4.01-3.52,3.48,0,4.14,1.44,4.14,3.5v6c0,1.06.06,1.55.36,2.21h-2.8c-.19-.36-.28-.81-.36-1.19h-.04c-.68,1.19-1.51,1.48-2.91,1.48-2.04,0-2.76-1.74-2.76-3.27,0-2.14.87-3.01,2.88-3.56l1.65-.45c.87-.23,1.17-.57,1.17-1.34,0-.87-.38-1.4-1.36-1.4-.89,0-1.36.59-1.36,1.49v.32h-2.63ZM166.07,16.36c-.4.3-.89.49-1.25.57-1.19.25-1.65.83-1.65,1.84,0,.87.32,1.59,1.1,1.59s1.8-.51,1.8-1.76v-2.25Z"/>
      <path class="st0" d="M170.55,6.92h2.93v15.14h-2.93V6.92Z"/>
      <path class="st0" d="M175.13,6.92h2.93v15.14h-2.93V6.92Z"/>
      <path class="st0" d="M179.58,14.15v-.28c0-2.63,1.8-3.52,4.01-3.52,3.48,0,4.14,1.44,4.14,3.5v6c0,1.06.06,1.55.36,2.21h-2.8c-.19-.36-.28-.81-.36-1.19h-.04c-.68,1.19-1.51,1.48-2.91,1.48-2.04,0-2.76-1.74-2.76-3.27,0-2.14.87-3.01,2.88-3.56l1.65-.45c.87-.23,1.17-.57,1.17-1.34,0-.87-.38-1.4-1.36-1.4-.89,0-1.36.59-1.36,1.49v.32h-2.63ZM184.92,16.36c-.4.3-.89.49-1.25.57-1.19.25-1.65.83-1.65,1.84,0,.87.32,1.59,1.1,1.59s1.8-.51,1.8-1.76v-2.25Z"/>
      <path class="st0" d="M194.78,14.76c0-1.1-.21-2.29-1.31-2.29-1.44,0-1.68,1.27-1.68,3.9,0,2.82.25,3.99,1.57,3.99.98,0,1.42-.83,1.42-2.67h2.8c0,2.99-1.25,4.67-4.35,4.67-2.93,0-4.37-1.42-4.37-6s1.93-6,4.62-6,4.09,1.72,4.09,4.41h-2.8Z"/>
      <path class="st0" d="M201.48,16.8v.91c0,1.34.36,2.65,1.44,2.65.98,0,1.38-.74,1.55-2.14h2.63c-.11,2.65-1.38,4.14-4.14,4.14-4.24,0-4.41-3.27-4.41-6.11,0-3.05.59-5.9,4.54-5.9,3.41,0,4.18,2.29,4.18,5.79v.66h-5.79ZM204.47,15.06c-.06-1.74-.28-2.71-1.48-2.71s-1.51,1.21-1.51,2.27v.45h2.99Z"/>
      <path class="st0" d="M212.53,6.92h3.05v5.79h3.56v-5.79h3.05v15.14h-3.05v-6.72h-3.56v6.72h-3.05V6.92Z"/>
      <path class="st0" d="M226.59,18.75v3.31h-2.8v-3.31h2.8Z"/>
      <path class="st0" d="M236.83,12.03c0-2.21-.45-3.16-1.82-3.16-1.55,0-1.91,1.55-1.91,5.83,0,4.58.64,5.41,1.95,5.41,1.1,0,1.91-.57,1.91-3.84h3.05c0,3.27-.81,6.09-4.81,6.09-4.58,0-5.15-3.27-5.15-7.87s.57-7.87,5.15-7.87,4.69,3.2,4.69,5.41h-3.05Z"/>
      <path class="st0" d="M245.54,10.35c3.52-.06,4.5,2.04,4.5,6s-1.15,6-4.5,6c-3.52.06-4.5-2.04-4.5-6s1.15-6,4.5-6ZM245.54,20.36c1.19,0,1.57-1.17,1.57-4.01s-.38-4.01-1.57-4.01c-1.44,0-1.57,1.68-1.57,4.01s.13,4.01,1.57,4.01Z"/>
      <path class="st0" d="M257.01,20.72h-.04c-.62,1.12-1.68,1.63-2.91,1.63-1.82,0-2.91-1-2.91-3.24v-8.46h2.93v7.87c0,1.14.38,1.59,1.25,1.59,1,0,1.55-.61,1.55-1.89v-7.57h2.93v11.41h-2.8v-1.34Z"/>
      <path class="st0" d="M261.61,6.92h2.93v15.14h-2.93V6.92Z"/>
      <path class="st0" d="M266.85,7.38h2.93v3.27h1.7v1.99h-1.7v6.17c0,.89.19,1.25,1.04,1.25.23,0,.47-.02.66-.04v2.04c-.64.06-1.23.13-1.91.13-2.29,0-2.71-.7-2.71-3.01v-6.53h-1.48v-1.99h1.48v-3.27Z"/>
      <path class="st0" d="M275.05,16.8v.91c0,1.34.36,2.65,1.44,2.65.98,0,1.38-.74,1.55-2.14h2.63c-.11,2.65-1.38,4.14-4.14,4.14-4.24,0-4.41-3.27-4.41-6.11,0-3.05.59-5.9,4.54-5.9,3.41,0,4.18,2.29,4.18,5.79v.66h-5.79ZM278.04,15.06c-.06-1.74-.28-2.71-1.48-2.71s-1.51,1.21-1.51,2.27v.45h2.99Z"/>
      <path class="st0" d="M281.96,10.65h2.8v1.53h.04c.59-1.1,1.42-1.82,2.63-1.82.17,0,.36.02.53.04v2.8c-.3-.02-.61-.04-.91-.04-1.02,0-2.16.53-2.16,2.06v6.85h-2.93v-11.41Z"/>
      <g>
        <path class="st0" d="M292.88,6.89h5.01c4.25,0,5.01,2.91,5.01,7.37,0,5.37-1.15,7.79-5.2,7.79h-4.82V6.89ZM295.93,19.8h1.36c2.12,0,2.55-1.34,2.55-5.46,0-3.44-.28-5.2-2.61-5.2h-1.3v10.66Z"/>
        <path class="st0" d="M306.97,16.78v.91c0,1.34.36,2.65,1.44,2.65.98,0,1.38-.74,1.55-2.15h2.63c-.11,2.65-1.38,4.14-4.14,4.14-4.25,0-4.42-3.27-4.42-6.12,0-3.06.59-5.9,4.54-5.9,3.42,0,4.18,2.29,4.18,5.8v.66h-5.8ZM309.96,15.04c-.06-1.74-.28-2.72-1.49-2.72s-1.51,1.21-1.51,2.27v.45h2.99Z"/>
        <path class="st0" d="M314.23,10.63h2.8v1.21h.04c.64-1.06,1.44-1.51,2.59-1.51,2.4,0,3.5,1.76,3.5,6.01s-1.1,6.01-3.5,6.01c-1.1,0-1.85-.45-2.46-1.36h-.04v4.8h-2.93v-15.16ZM318.71,20.1c1.27,0,1.53-1.27,1.53-3.76s-.25-3.76-1.53-3.76-1.55,1.27-1.55,3.76.25,3.76,1.55,3.76Z"/>
        <path class="st0" d="M324.91,14.13v-.28c0-2.63,1.8-3.52,4.01-3.52,3.48,0,4.14,1.44,4.14,3.5v6.01c0,1.06.06,1.55.36,2.21h-2.8c-.19-.36-.28-.81-.36-1.19h-.04c-.68,1.19-1.51,1.49-2.91,1.49-2.04,0-2.76-1.74-2.76-3.27,0-2.14.87-3.02,2.89-3.57l1.66-.45c.87-.23,1.17-.57,1.17-1.34,0-.87-.38-1.4-1.36-1.4-.89,0-1.36.59-1.36,1.49v.32h-2.63ZM330.18,16.34c-.4.3-.89.49-1.25.57-1.19.25-1.66.83-1.66,1.85,0,.87.32,1.59,1.1,1.59s1.8-.51,1.8-1.76v-2.25Z"/>
        <path class="st0" d="M335.15,10.63h2.8v1.53h.04c.59-1.1,1.42-1.83,2.63-1.83.17,0,.36.02.53.04v2.8c-.3-.02-.62-.04-.91-.04-1.02,0-2.17.53-2.17,2.06v6.86h-2.93v-11.42Z"/>
        <path class="st0" d="M343.72,7.36h2.93v3.27h1.7v2h-1.7v6.18c0,.89.19,1.25,1.04,1.25.23,0,.47-.02.66-.04v2.04c-.64.06-1.23.13-1.91.13-2.29,0-2.72-.7-2.72-3.02v-6.54h-1.49v-2h1.49v-3.27Z"/>
        <path class="st0" d="M349.74,10.63h2.8v1.17h.04c.74-1.04,1.66-1.46,2.89-1.46,1.34,0,2.31.66,2.63,1.83h.04c.45-1.21,1.51-1.83,2.89-1.83,1.93,0,2.85,1.21,2.85,3.42v8.3h-2.93v-7.98c0-.96-.32-1.49-1.15-1.49-.93,0-1.53.64-1.53,1.95v7.52h-2.93v-7.98c0-.96-.32-1.49-1.15-1.49-.93,0-1.53.64-1.53,1.95v7.52h-2.93v-11.42Z"/>
        <path class="st0" d="M368.25,16.78v.91c0,1.34.36,2.65,1.44,2.65.98,0,1.38-.74,1.55-2.15h2.63c-.11,2.65-1.38,4.14-4.14,4.14-4.25,0-4.42-3.27-4.42-6.12,0-3.06.59-5.9,4.54-5.9,3.42,0,4.18,2.29,4.18,5.8v.66h-5.8ZM371.25,15.04c-.06-1.74-.28-2.72-1.49-2.72s-1.51,1.21-1.51,2.27v.45h2.99Z"/>
        <path class="st0" d="M375.58,10.63h2.8v1.34h.04c.62-1.12,1.68-1.63,2.91-1.63,1.83,0,2.91,1,2.91,3.25v8.47h-2.93v-7.88c0-1.15-.38-1.59-1.25-1.59-1,0-1.55.62-1.55,1.89v7.58h-2.93v-11.42Z"/>
        <path class="st0" d="M386.83,7.36h2.93v3.27h1.7v2h-1.7v6.18c0,.89.19,1.25,1.04,1.25.23,0,.47-.02.66-.04v2.04c-.64.06-1.23.13-1.91.13-2.29,0-2.72-.7-2.72-3.02v-6.54h-1.49v-2h1.49v-3.27Z"/>
        <path class="st0" d="M400.01,10.33c3.52-.06,4.5,2.04,4.5,6.01s-1.15,6.01-4.5,6.01c-3.52.06-4.5-2.04-4.5-6.01s1.15-6.01,4.5-6.01ZM400.24,20.35c1.19,0,1.57-1.17,1.57-4.01s-.38-4.01-1.57-4.01c-1.44,0-1.57,1.68-1.57,4.01s.13,4.01,1.57,4.01Z"/>
        <path class="st0" d="M406.95,12.62h-1.49v-2h1.49v-1.29c0-2.06,1.17-2.74,3.06-2.74.53,0,1.04.02,1.57.06v2.08c-.19-.02-.38-.02-.57-.02-.83,0-1.13.25-1.13.91v1h1.7v2h-1.7v9.43h-2.93v-9.43Z"/>
      </g>
    </g>
    <g>
      <path class="st0" d="M146.11,27.15h7.57c3.7,0,6.37,1.38,6.37,5.68,0,2.42-1.16,4.27-3.39,4.9v.06c2.48.35,4.08,2.23,4.08,5.21,0,3.52-1.73,6.56-7,6.56h-7.63v-22.42ZM150.63,36.35h1.29c2.48,0,3.61-.85,3.61-2.95s-1.04-2.92-3.26-2.92h-1.63v5.87ZM150.63,46.24h1.76c2.17,0,3.64-.78,3.64-3.39s-1.48-3.36-3.45-3.36h-1.95v6.75Z"/>
      <path class="st0" d="M162.02,26.9h4.33v3.7h-4.33v-3.7ZM162.02,32.68h4.33v16.89h-4.33v-16.89Z"/>
      <path class="st0" d="M174.19,32.24c5.21-.09,6.66,3.01,6.66,8.88s-1.7,8.88-6.66,8.88c-5.21.09-6.66-3.01-6.66-8.88s1.7-8.88,6.66-8.88ZM174.19,47.06c1.76,0,2.32-1.73,2.32-5.93s-.57-5.93-2.32-5.93c-2.13,0-2.32,2.48-2.32,5.93s.19,5.93,2.32,5.93Z"/>
      <path class="st0" d="M181.83,32.68h4.14v1.73h.06c1.1-1.54,2.45-2.17,4.27-2.17,1.98,0,3.42.97,3.89,2.7h.06c.66-1.79,2.23-2.7,4.27-2.7,2.86,0,4.21,1.79,4.21,5.05v12.28h-4.33v-11.8c0-1.41-.47-2.2-1.7-2.2-1.38,0-2.26.94-2.26,2.89v11.11h-4.33v-11.8c0-1.41-.47-2.2-1.7-2.2-1.38,0-2.26.94-2.26,2.89v11.11h-4.33v-16.89Z"/>
      <path class="st0" d="M208,41.78v1.35c0,1.98.53,3.92,2.13,3.92,1.44,0,2.04-1.1,2.29-3.17h3.89c-.16,3.92-2.04,6.12-6.12,6.12-6.28,0-6.53-4.83-6.53-9.04,0-4.52.88-8.73,6.72-8.73,5.05,0,6.18,3.39,6.18,8.57v.97h-8.57ZM212.42,39.21c-.09-2.57-.41-4.02-2.2-4.02s-2.23,1.79-2.23,3.36v.66h4.43Z"/>
      <path class="st0" d="M226.51,47.78h-.06c-.94,1.57-2.13,2.23-3.83,2.23-3.55,0-5.18-2.61-5.18-8.88s1.63-8.88,5.18-8.88c1.63,0,2.73.66,3.64,2.01h.06v-7.1h4.33v22.42h-4.14v-1.79ZM224.03,46.68c1.91,0,2.29-1.88,2.29-5.56s-.38-5.56-2.29-5.56-2.26,1.88-2.26,5.56.38,5.56,2.26,5.56Z"/>
      <path class="st0" d="M232.19,26.9h4.33v3.7h-4.33v-3.7ZM232.19,32.68h4.33v16.89h-4.33v-16.89Z"/>
      <path class="st0" d="M246.22,38.77c0-1.63-.31-3.39-1.95-3.39-2.13,0-2.48,1.88-2.48,5.78,0,4.18.38,5.9,2.32,5.9,1.44,0,2.1-1.22,2.1-3.96h4.14c0,4.43-1.85,6.91-6.44,6.91-4.33,0-6.47-2.1-6.47-8.88s2.86-8.88,6.84-8.88,6.06,2.54,6.06,6.53h-4.14Z"/>
      <path class="st0" d="M251.38,37.86v-.41c0-3.89,2.67-5.21,5.93-5.21,5.15,0,6.12,2.13,6.12,5.18v8.89c0,1.57.09,2.29.53,3.26h-4.14c-.28-.53-.41-1.19-.53-1.76h-.06c-1,1.76-2.23,2.2-4.3,2.2-3.01,0-4.08-2.57-4.08-4.83,0-3.17,1.29-4.46,4.27-5.27l2.45-.66c1.29-.35,1.73-.85,1.73-1.98,0-1.29-.57-2.07-2.01-2.07-1.32,0-2.01.88-2.01,2.2v.47h-3.89ZM259.29,41.12c-.6.44-1.32.72-1.85.85-1.76.38-2.45,1.22-2.45,2.73,0,1.29.47,2.35,1.63,2.35s2.67-.75,2.67-2.61v-3.33Z"/>
      <path class="st0" d="M265.13,27.15h4.33v22.42h-4.33v-22.42Z"/>
      <g>
        <path class="st0" d="M288.31,27.2v3.7h-8.01v5.27h7.53v3.7h-7.53v6.03h8.32v3.7h-12.84v-22.41h12.53Z"/>
        <path class="st0" d="M290.48,32.73h4.14v1.98h.06c.91-1.66,2.48-2.42,4.3-2.42,2.7,0,4.3,1.48,4.3,4.8v12.53h-4.33v-11.65c0-1.7-.57-2.35-1.85-2.35-1.48,0-2.29.91-2.29,2.79v11.21h-4.33v-16.89Z"/>
        <path class="st0" d="M317.48,32.73v16.04c0,4.46-1.98,6.62-7.03,6.62-3.67,0-5.74-1.63-5.74-4.52h4.14c0,.56.25,1,.66,1.29.41.28.91.47,1.44.47,1.76,0,2.39-1.32,2.39-3.04v-2.23h-.06c-.88,1.26-2.23,2.07-3.61,2.07-3.45,0-5.18-2.35-5.18-8.54,0-3.96.6-8.6,5.31-8.6,1.19,0,2.67.57,3.48,2.32h.06v-1.88h4.14ZM310.99,46.1c1.82,0,2.35-1.98,2.35-4.83,0-4.11-.53-5.65-2.26-5.65-1.91,0-2.26,1.54-2.26,6.09,0,2.32.35,4.4,2.17,4.4Z"/>
        <path class="st0" d="M319.18,26.95h4.33v3.7h-4.33v-3.7ZM319.18,32.73h4.33v16.89h-4.33v-16.89Z"/>
        <path class="st0" d="M325.44,32.73h4.14v1.98h.06c.91-1.66,2.48-2.42,4.3-2.42,2.7,0,4.3,1.48,4.3,4.8v12.53h-4.33v-11.65c0-1.7-.57-2.35-1.85-2.35-1.48,0-2.29.91-2.29,2.79v11.21h-4.33v-16.89Z"/>
        <path class="st0" d="M343.86,41.83v1.35c0,1.98.53,3.92,2.13,3.92,1.44,0,2.04-1.1,2.29-3.17h3.89c-.16,3.92-2.04,6.12-6.12,6.12-6.28,0-6.53-4.83-6.53-9.04,0-4.52.88-8.73,6.72-8.73,5.05,0,6.18,3.39,6.18,8.57v.97h-8.57ZM348.29,39.26c-.09-2.57-.41-4.02-2.2-4.02s-2.23,1.79-2.23,3.36v.66h4.43Z"/>
        <path class="st0" d="M357.9,41.83v1.35c0,1.98.53,3.92,2.13,3.92,1.44,0,2.04-1.1,2.29-3.17h3.89c-.16,3.92-2.04,6.12-6.12,6.12-6.28,0-6.53-4.83-6.53-9.04,0-4.52.88-8.73,6.72-8.73,5.05,0,6.18,3.39,6.18,8.57v.97h-8.57ZM362.33,39.26c-.09-2.57-.41-4.02-2.2-4.02s-2.23,1.79-2.23,3.36v.66h4.43Z"/>
        <path class="st0" d="M367.81,32.73h4.14v2.26h.06c.88-1.63,2.1-2.7,3.89-2.7.25,0,.53.03.78.06v4.14c-.44-.03-.91-.06-1.35-.06-1.51,0-3.2.78-3.2,3.04v10.14h-4.33v-16.89Z"/>
        <path class="st0" d="M378,26.95h4.33v3.7h-4.33v-3.7ZM378.06,32.73h4.33v16.89h-4.33v-16.89Z"/>
        <path class="st0" d="M384.26,32.73h4.14v1.98h.06c.91-1.66,2.48-2.42,4.3-2.42,2.7,0,4.3,1.48,4.3,4.8v12.53h-4.33v-11.65c0-1.7-.57-2.35-1.85-2.35-1.48,0-2.29.91-2.29,2.79v11.21h-4.33v-16.89Z"/>
        <path class="st0" d="M411.04,32.73v16.04c0,4.46-1.98,6.62-7.03,6.62-3.67,0-5.74-1.63-5.74-4.52h4.14c0,.56.25,1,.66,1.29.41.28.91.47,1.44.47,1.76,0,2.39-1.32,2.39-3.04v-2.23h-.06c-.88,1.26-2.23,2.07-3.61,2.07-3.45,0-5.18-2.35-5.18-8.54,0-3.96.6-8.6,5.31-8.6,1.19,0,2.67.57,3.48,2.32h.06v-1.88h4.14ZM404.54,46.1c1.82,0,2.35-1.98,2.35-4.83,0-4.11-.53-5.65-2.26-5.65-1.92,0-2.26,1.54-2.26,6.09,0,2.32.35,4.4,2.17,4.4Z"/>
      </g>
    </g>
  </g>
</svg>